<!--?xml version="1.0" encoding="utf-8"?-->
<!-- Generator: Adobe Illustrator 18.1.1, SVG Export Plug-In . SVG Version: 6.00 Build 0)  -->

<svg version="1.1" id="_x31_0" xmlns="http://www.w3.org/2000/svg" xmlns:xlink="http://www.w3.org/1999/xlink" x="0px" y="0px" viewBox="0 0 512 512" style="width: 48px; height: 48px; opacity: 1;" xml:space="preserve">
<style type="text/css">
	.st0{fill:#374149;}
</style>
<g>
	<path class="st0" d="M256.002,387.886c52.794,0,102.028-20.785,138.719-58.222c35.566-36.5,55.218-84.801,55.218-135.722
		C449.939,87.047,363.084,0,256.002,0C149.107,0,62.061,87.047,62.061,193.942c0,50.922,19.652,99.222,55.41,135.722
		C154.162,367.102,203.393,387.886,256.002,387.886z M140.99,310.867c31.988-20.195,73.457-42.414,76.445-42.977h1.692v-34.82
		c-4.122-2.246-6.93-7.676-8.985-12.914c-1.183-3.316-1.957-6.445-2.434-8.816c-0.16-0.954-0.371-1.961-0.453-2.801
		c-0.004-0.078-0.012-0.164-0.004-0.211c-0.008,0.004-0.02,0.008-0.027,0.008c-0.004-0.058-0.028-0.141-0.035-0.203
		c-0.008,0.004-0.016,0.004-0.024,0.004c-0.007-0.054-0.019-0.121-0.023-0.156c-1.543,0.503-2.922,0.574-4.172,0.363
		c-0.25-0.047-0.492-0.11-0.73-0.18c-1.117-0.313-2.137-0.855-3.035-1.641c-0.023-0.019-0.05-0.039-0.074-0.058
		c-6.144-5.492-7.339-20.621-7.902-25.246c-0.13-1.308-0.047-2.476,0.101-3.586c0.035-0.234,0.043-0.465,0.09-0.695
		c0.402-2.191,1.226-3.973,2.102-5.246c0.066-0.082,0.121-0.191,0.183-0.266c0.438-0.594,0.879-1.098,1.27-1.442
		c-0.375-0.934-0.942-2.434-1.496-3.934c-1.683-7.3-2.434-13.105-2.434-17.968c0-10.485,3.738-17.598,10.668-30.137
		c10.11-18.723,35.942-36.508,50.922-36.325h3.367c18.161,1.317,27.894,10.301,35.562,23.965c4.684,0,12.926,6.18,18.914,12.36
		c2.625,2.613,5.054,5.238,6.554,7.293c4.114,5.996,5.055,15.914,4.305,24.718c-0.374,6.176-1.5,11.973-2.808,16.094
		c-0.371,1.5-0.942,3-1.317,3.934c1.683,1.5,4.309,5.43,3.558,11.234c-0.558,6.18-2.434,31.074-15.722,26.762v0.191
		c-0.558,4.305-2.805,19.652-11.985,24.898v34.82h1.692c2.789,0.527,38.996,19.898,69.828,38.891
		c1.973,1.242,3.957,2.484,5.882,3.718c0.254,0.183,0.512,0.324,0.762,0.519c-30.871,30.469-71.649,47.29-115.227,47.29
		c-39.902,0-77.488-14.367-107.305-40.348c-2.468-2.191-4.957-4.359-7.328-6.703C141.248,311.121,141.115,311.008,140.99,310.867z" style="fill: rgb(75, 75, 75);"></path>
	<path class="st0" d="M58.088,437.121h-0.375v74.278v0.218V512h249.164v-74.879H59.603H58.088z M76.431,493.282V455.84h211.727
		v37.442H77.346H76.431z" style="fill: rgb(75, 75, 75);"></path>
	<polygon class="st0" points="339.076,437.121 338.373,437.121 337.998,437.121 337.998,511.398 337.998,511.617 337.998,512 
		454.287,512 454.287,437.121 	" style="fill: rgb(75, 75, 75);"></polygon>
</g>
</svg>
